<?xml version="1.0" encoding="utf-8"?>
<!-- Generator: Adobe Illustrator 16.0.0, SVG Export Plug-In . SVG Version: 6.00 Build 0)  -->
<!DOCTYPE svg PUBLIC "-//W3C//DTD SVG 1.1//EN" "http://www.w3.org/Graphics/SVG/1.1/DTD/svg11.dtd">
<svg version="1.1" id="Layer_1" xmlns="http://www.w3.org/2000/svg" xmlns:xlink="http://www.w3.org/1999/xlink" x="0px" y="0px"
	 width="428.857px" height="136.714px" viewBox="0 0 428.857 136.714" enable-background="new 0 0 428.857 136.714"
	 xml:space="preserve">
<g>
	<path d="M9.266,48.323c0.925,4.695,3.771,8.679,8.963,8.679c4.197,0,5.762-2.561,5.762-5.05c0-8.395-15.508-5.691-15.508-17.144
		c0-3.984,3.201-9.105,11.026-9.105c2.276,0,5.335,0.64,8.11,2.063l0.498,7.256h-1.636c-0.711-4.481-3.201-7.042-7.754-7.042
		c-2.846,0-5.549,1.636-5.549,4.695c0,8.323,16.504,5.762,16.504,16.931c0,4.695-3.771,9.674-12.236,9.674
		c-2.845,0-6.189-0.996-8.679-2.418l-0.782-8.181L9.266,48.323z"/>
	<path d="M44.408,49.461c0,4.695,2.561,5.976,4.482,5.976c1.92,0,3.343-0.64,4.979-2.063l1.067,1.067
		c-2.49,2.561-5.62,4.837-9.461,4.837c-4.553,0-6.758-2.418-6.758-6.616V30.61h-4.695v-1.138c3.699-2.845,5.904-4.197,9.532-9.959
		h0.854v7.256h10.6v3.841h-10.6V49.461z"/>
	<path d="M89.153,54.298c0,1.281,0.783,1.352,1.992,1.352c0.854,0,1.921-0.071,2.846-0.071v1.494
		c-3.059,0.285-8.892,1.778-10.244,2.205l-0.356-0.213v-5.762c-4.268,3.485-7.541,5.975-12.591,5.975
		c-3.842,0-7.825-2.49-7.825-8.465V32.602c0-1.849-0.285-3.628-4.268-3.983v-1.352c2.561-0.071,8.251-0.498,9.176-0.498
		c0.783,0,0.783,0.498,0.783,2.063v18.353c0,2.134,0,8.252,6.189,8.252c2.418,0,5.62-1.85,8.607-4.339V31.961
		c0-1.422-3.415-2.205-5.976-2.917v-1.28c6.402-0.427,10.386-0.996,11.097-0.996c0.569,0,0.569,0.498,0.569,1.28V54.298z"/>
	<path d="M128.848,52.093c0,2.917,0.711,2.917,3.486,2.917h1.209v1.423h-0.071c-1.067,0.213-2.988,0.782-5.051,1.423
		c-2.205,0.711-4.055,1.422-4.481,1.422c-0.711,0-0.783-1.067-0.783-1.92v-3.272h-0.142c-2.561,2.632-6.544,5.193-10.884,5.193
		c-8.537,0-13.231-7.469-13.231-15.437c0-9.604,7.754-18.14,17.571-18.14c2.276,0,4.624,0.427,6.687,1.28V14.391
		c0-4.624-1.067-4.766-3.77-5.548V7.704c2.845-0.925,5.833-2.205,7.327-3.059c0.782-0.427,1.352-0.782,1.565-0.782
		c0.427,0,0.569,0.427,0.569,0.996V52.093z M123.157,34.522c0-5.264-4.41-6.544-7.541-6.544c-5.05,0-10.599,3.77-10.599,13.374
		c0,7.825,4.766,13.658,11.24,13.658c2.134,0,6.9-1.565,6.9-4.197V34.522z"/>
	<path d="M137.741,56.361h1.352c1.992,0,3.415,0,3.415-2.348V34.736c0-3.13-1.067-3.557-3.699-4.979v-1.138
		c3.344-0.996,7.327-2.348,7.612-2.561c0.498-0.285,0.925-0.355,1.28-0.355c0.356,0,0.498,0.427,0.498,0.996v27.316
		c0,2.348,1.565,2.348,3.557,2.348h1.209v1.85c-2.418,0-4.908-0.142-7.469-0.142s-5.122,0.071-7.754,0.142V56.361z M145.353,14.747
		c-1.85,0-3.486-1.708-3.486-3.557c0-1.779,1.707-3.415,3.486-3.415c1.849,0,3.485,1.494,3.485,3.415
		C148.838,13.11,147.273,14.747,145.353,14.747z"/>
	<path d="M174.519,25.702c9.888,0,17.286,6.544,17.286,16.646c0,9.176-7.256,16.93-16.361,16.93
		c-9.461,0-17.215-6.544-17.215-16.646C158.229,33.456,164.987,25.702,174.519,25.702z M175.373,57.428
		c7.113,0,9.888-8.251,9.888-14.369c0-5.833-3.13-15.508-10.67-15.508c-7.042,0-9.817,8.251-9.817,14.37
		C164.773,47.754,167.903,57.428,175.373,57.428z"/>
	<path fill="#EE4800" d="M64.505,73.15c0.26,0.261,0.391,0.629,0.391,1.103v49.156c0,0.475-0.131,0.843-0.391,1.103
		c-0.261,0.261-0.629,0.391-1.103,0.391h-4.41c-0.475,0-0.843-0.13-1.103-0.391c-0.261-0.26-0.391-0.628-0.391-1.103V89.832
		c0-0.379-0.071-0.676-0.213-0.889s-0.309-0.32-0.498-0.32c-0.38,0-0.711,0.309-0.996,0.925l-14.299,34.218
		c-0.285,0.759-0.878,1.138-1.779,1.138h-3.272c-0.902,0-1.494-0.379-1.779-1.138l-14.37-34.289
		c-0.285-0.616-0.594-0.925-0.925-0.925c-0.238,0-0.427,0.106-0.569,0.32s-0.213,0.534-0.213,0.96v33.577
		c0,0.475-0.131,0.843-0.391,1.103c-0.261,0.261-0.629,0.391-1.103,0.391h-4.411c-0.475,0-0.843-0.13-1.103-0.391
		c-0.261-0.26-0.391-0.628-0.391-1.103V74.253c0-0.474,0.13-0.841,0.391-1.103c0.26-0.26,0.628-0.392,1.103-0.392h7.398
		c0.9,0,1.494,0.38,1.778,1.138l15.224,36.708c0.285,0.617,0.616,0.925,0.996,0.925c0.474,0,0.806-0.308,0.996-0.925l15.224-36.708
		c0.285-0.758,0.877-1.138,1.778-1.138h7.327C63.876,72.759,64.244,72.89,64.505,73.15z"/>
	<path fill="#60C600" d="M120.028,123.765c0,0.759-0.451,1.138-1.352,1.138h-5.976c-0.854,0-1.423-0.402-1.707-1.209l-4.695-13.089
		c-0.285-0.806-0.854-1.209-1.708-1.209H86.522c-0.854,0-1.423,0.404-1.708,1.209l-4.695,13.089
		c-0.285,0.807-0.854,1.209-1.708,1.209h-5.976c-0.901,0-1.352-0.379-1.352-1.138l0.142-0.569L90.15,73.968
		c0.285-0.806,0.854-1.209,1.708-1.209h7.398c0.854,0,1.422,0.404,1.707,1.209l18.923,49.228L120.028,123.765z M95.557,82.22
		c-0.19,0-0.38,0.096-0.569,0.285c-0.19,0.19-0.333,0.427-0.427,0.711l-6.189,17.571l-0.143,0.569c0,0.759,0.45,1.138,1.352,1.138
		h11.951c0.9,0,1.352-0.379,1.352-1.138l-0.143-0.569l-6.189-17.571C96.315,82.553,95.984,82.22,95.557,82.22z"/>
	<path fill="#00FFFF" d="M134.221,73.15c0.26,0.261,0.391,0.629,0.391,1.103v42.256c0,0.475,0.13,0.843,0.391,1.103
		c0.26,0.261,0.628,0.391,1.103,0.391h32.083c0.474,0,0.841,0.131,1.103,0.391c0.26,0.261,0.392,0.629,0.392,1.103v3.913
		c0,0.475-0.131,0.843-0.392,1.103c-0.261,0.261-0.629,0.391-1.103,0.391h-39.837c-0.475,0-0.842-0.13-1.103-0.391
		c-0.261-0.26-0.391-0.628-0.391-1.103V74.253c0-0.474,0.13-0.841,0.391-1.103c0.26-0.26,0.628-0.392,1.103-0.392h4.766
		C133.591,72.759,133.959,72.89,134.221,73.15z"/>
	<path d="M221.257,123.765c0,0.759-0.451,1.138-1.352,1.138h-5.976c-0.854,0-1.423-0.402-1.707-1.209l-4.695-13.089
		c-0.285-0.806-0.854-1.209-1.708-1.209h-18.069c-0.854,0-1.423,0.404-1.708,1.209l-4.695,13.089
		c-0.285,0.807-0.854,1.209-1.708,1.209h-5.976c-0.901,0-1.352-0.379-1.352-1.138l0.142-0.569l18.923-49.228
		c0.285-0.806,0.854-1.209,1.708-1.209h7.398c0.854,0,1.422,0.404,1.707,1.209l18.923,49.228L221.257,123.765z M196.786,82.22
		c-0.19,0-0.38,0.096-0.569,0.285c-0.19,0.19-0.333,0.427-0.427,0.711l-6.189,17.571l-0.143,0.569c0,0.759,0.45,1.138,1.352,1.138
		h11.951c0.9,0,1.352-0.379,1.352-1.138l-0.143-0.569l-6.189-17.571C197.544,82.553,197.213,82.22,196.786,82.22z"/>
	<path fill="#FF7F00" d="M258.818,103.491c0,0.19,0.118,0.475,0.356,0.854l12.663,18.781c0.189,0.238,0.284,0.522,0.284,0.854
		c0,0.617-0.427,0.925-1.28,0.925h-5.904c-0.759,0-1.352-0.331-1.779-0.996l-13.018-19.776c-0.427-0.664-1.021-0.996-1.778-0.996
		h-11.027c-0.475,0-0.842,0.131-1.103,0.392c-0.261,0.261-0.391,0.629-0.391,1.103v18.78c0,0.475-0.131,0.843-0.391,1.103
		c-0.261,0.261-0.629,0.391-1.103,0.391h-4.766c-0.475,0-0.842-0.13-1.103-0.391c-0.261-0.26-0.391-0.628-0.391-1.103V74.253
		c0-0.474,0.13-0.841,0.391-1.103c0.26-0.26,0.628-0.392,1.103-0.392h25.041c4.837,0,8.797,1.222,11.88,3.664
		c3.082,2.443,4.624,6.272,4.624,11.489c0,4.126-1.008,7.363-3.023,9.71c-2.017,2.348-4.731,3.948-8.146,4.802
		C259.197,102.662,258.818,103.017,258.818,103.491z M237.334,79.588c-0.475,0-0.842,0.131-1.103,0.391
		c-0.261,0.261-0.391,0.629-0.391,1.103v13.659c0,0.475,0.13,0.842,0.391,1.103c0.26,0.261,0.628,0.391,1.103,0.391h12.876
		c2.656,0,4.873-0.142,6.652-0.427c1.778-0.284,3.295-1.042,4.553-2.276c1.256-1.232,1.885-3.105,1.885-5.62
		c0-2.513-0.629-4.386-1.885-5.62c-1.257-1.233-2.774-1.992-4.553-2.276c-1.779-0.285-3.996-0.427-6.652-0.427H237.334z"/>
	<path fill="#FF6CCC" d="M324.763,123.979c0,0.617-0.451,0.925-1.352,0.925h-5.69c-0.76,0-1.352-0.308-1.778-0.925l-15.936-21.982
		c-0.284-0.427-0.64-0.64-1.066-0.64c-0.381,0-0.736,0.167-1.067,0.498l-7.754,8.181c-0.475,0.522-0.712,1.138-0.712,1.85v11.524
		c0,0.475-0.131,0.843-0.391,1.103c-0.262,0.261-0.63,0.391-1.104,0.391h-4.766c-0.475,0-0.843-0.13-1.103-0.391
		c-0.262-0.26-0.392-0.628-0.392-1.103V74.253c0-0.474,0.13-0.841,0.392-1.103c0.26-0.26,0.628-0.392,1.103-0.392h4.766
		c0.474,0,0.842,0.131,1.104,0.392c0.26,0.261,0.391,0.629,0.391,1.103v23.689c0,0.854,0.285,1.28,0.854,1.28
		c0.285,0,0.616-0.189,0.996-0.569l23.547-25.112c0.474-0.521,1.067-0.783,1.778-0.783h6.189c0.379,0,0.687,0.083,0.925,0.249
		c0.236,0.167,0.355,0.368,0.355,0.605c0,0.238-0.167,0.569-0.498,0.996l-18.425,19.563c-0.332,0.333-0.498,0.711-0.498,1.138
		c0,0.285,0.118,0.617,0.355,0.996l19.421,26.748C324.645,123.434,324.763,123.742,324.763,123.979z"/>
	<path fill="#848382" d="M372.389,73.15c0.26,0.261,0.392,0.629,0.392,1.103v3.841c0,0.475-0.132,0.843-0.392,1.103
		c-0.261,0.261-0.629,0.392-1.103,0.392h-30.021c-0.475,0-0.843,0.131-1.103,0.391c-0.261,0.261-0.392,0.629-0.392,1.103v11.88
		c0,0.475,0.131,0.842,0.392,1.103c0.26,0.261,0.628,0.391,1.103,0.391h17.785c0.473,0,0.841,0.131,1.103,0.391
		c0.26,0.261,0.391,0.629,0.391,1.103v3.841c0,0.475-0.131,0.843-0.391,1.103c-0.262,0.261-0.63,0.392-1.103,0.392h-17.785
		c-0.475,0-0.843,0.131-1.103,0.391c-0.261,0.261-0.392,0.629-0.392,1.103v13.801c0,0.475,0.131,0.843,0.392,1.103
		c0.26,0.261,0.628,0.392,1.103,0.392h30.021c0.474,0,0.842,0.131,1.103,0.391c0.26,0.261,0.392,0.629,0.392,1.103v3.841
		c0,0.475-0.132,0.843-0.392,1.103c-0.261,0.261-0.629,0.391-1.103,0.391h-37.774c-0.475,0-0.843-0.13-1.103-0.391
		c-0.262-0.26-0.392-0.628-0.392-1.103V74.253c0-0.474,0.13-0.841,0.392-1.103c0.26-0.26,0.628-0.392,1.103-0.392h37.774
		C371.76,72.759,372.128,72.89,372.389,73.15z"/>
	<path fill="#D2DD26" d="M416.459,72.759h6.331c0.379,0,0.687,0.083,0.925,0.249c0.236,0.167,0.355,0.392,0.355,0.676
		c0,0.238-0.119,0.546-0.355,0.925l-18.567,26.463c-0.38,0.569-0.569,1.186-0.569,1.85v20.488c0,0.475-0.131,0.843-0.391,1.103
		c-0.262,0.261-0.63,0.391-1.103,0.391h-4.767c-0.475,0-0.843-0.13-1.103-0.391c-0.262-0.26-0.392-0.628-0.392-1.103v-20.417
		c0-0.664-0.189-1.28-0.569-1.85l-18.566-26.535c-0.238-0.379-0.356-0.687-0.356-0.925c0-0.284,0.118-0.509,0.356-0.676
		c0.236-0.166,0.544-0.249,0.925-0.249h6.615c0.759,0,1.352,0.309,1.778,0.925l12.592,18.781c0.379,0.475,0.734,0.711,1.067,0.711
		c0.379,0,0.734-0.237,1.066-0.711l12.947-18.781C415.106,73.068,415.699,72.759,416.459,72.759z"/>
</g>
</svg>
