<?xml version="1.0" encoding="utf-8"?>
<!-- Generator: Adobe Illustrator 16.0.0, SVG Export Plug-In . SVG Version: 6.00 Build 0)  -->
<!DOCTYPE svg PUBLIC "-//W3C//DTD SVG 1.1//EN" "http://www.w3.org/Graphics/SVG/1.1/DTD/svg11.dtd">
<svg version="1.1" id="Layer_1" xmlns="http://www.w3.org/2000/svg" xmlns:xlink="http://www.w3.org/1999/xlink" x="0px" y="0px"
	 width="419.783px" height="149.639px" viewBox="-97.002 -49.168 419.783 149.639"
	 enable-background="new -97.002 -49.168 419.783 149.639" xml:space="preserve">
<g>
	<path d="M-88.134,0.563c0.904,4.59,3.686,8.485,8.763,8.485c4.104,0,5.634-2.504,5.634-4.938c0-8.207-15.162-5.564-15.162-16.762
		c0-3.895,3.13-8.902,10.78-8.902c2.226,0,5.216,0.626,7.929,2.017l0.487,7.094h-1.6c-0.695-4.381-3.13-6.885-7.581-6.885
		c-2.782,0-5.425,1.6-5.425,4.59c0,8.137,16.136,5.633,16.136,16.553c0,4.59-3.686,9.459-11.962,9.459
		c-2.782,0-6.051-0.974-8.485-2.365l-0.765-7.999L-88.134,0.563z"/>
	<path d="M-53.778,1.676c0,4.59,2.504,5.842,4.382,5.842s3.269-0.626,4.868-2.017l1.043,1.043c-2.434,2.504-5.495,4.729-9.25,4.729
		c-4.451,0-6.607-2.365-6.607-6.468v-21.561h-4.59v-1.113c3.617-2.782,5.773-4.104,9.32-9.737h0.834v7.094h10.363v3.755h-10.363
		V1.676z"/>
	<path d="M-10.032,6.405c0,1.252,0.765,1.321,1.947,1.321c0.834,0,1.878-0.069,2.782-0.069v1.46
		c-2.99,0.278-8.693,1.739-10.015,2.156l-0.348-0.209V5.431c-4.173,3.408-7.372,5.842-12.31,5.842c-3.756,0-7.65-2.435-7.65-8.277
		v-17.805c0-1.808-0.278-3.547-4.173-3.895v-1.321c2.504-0.07,8.068-0.487,8.972-0.487c0.765,0,0.765,0.487,0.765,2.017V-0.55
		c0,2.086,0,8.068,6.051,8.068c2.365,0,5.494-1.808,8.416-4.243v-18.708c0-1.391-3.338-2.156-5.842-2.852v-1.252
		c6.259-0.417,10.154-0.974,10.85-0.974c0.557,0,0.557,0.487,0.557,1.251V6.405z"/>
	<path d="M28.775,4.249c0,2.852,0.695,2.852,3.408,2.852h1.182v1.391h-0.069c-1.043,0.208-2.921,0.765-4.938,1.391
		c-2.156,0.695-3.964,1.391-4.382,1.391c-0.695,0-0.765-1.043-0.765-1.878V6.197h-0.139c-2.504,2.573-6.399,5.077-10.641,5.077
		c-8.346,0-12.937-7.303-12.937-15.092c0-9.389,7.581-17.735,17.179-17.735c2.226,0,4.521,0.417,6.538,1.252v-12.311
		c0-4.521-1.043-4.66-3.687-5.425v-1.113c2.782-0.904,5.703-2.156,7.164-2.99c0.765-0.417,1.322-0.765,1.53-0.765
		c0.417,0,0.557,0.417,0.557,0.974V4.249z M23.211-12.93c0-5.146-4.312-6.398-7.373-6.398c-4.938,0-10.363,3.686-10.363,13.075
		c0,7.65,4.66,13.354,10.989,13.354c2.086,0,6.747-1.53,6.747-4.104V-12.93z"/>
	<path d="M37.467,8.422h1.321c1.948,0,3.338,0,3.338-2.295v-18.848c0-3.061-1.043-3.478-3.616-4.869v-1.113
		c3.269-0.974,7.164-2.295,7.441-2.504c0.487-0.278,0.904-0.348,1.252-0.348s0.487,0.417,0.487,0.974V6.127
		c0,2.295,1.53,2.295,3.478,2.295h1.183v1.808c-2.365,0-4.799-0.139-7.303-0.139c-2.504,0-5.008,0.07-7.581,0.139V8.422z
		 M44.909-32.264c-1.809,0-3.408-1.669-3.408-3.478c0-1.739,1.669-3.338,3.408-3.338c1.808,0,3.408,1.46,3.408,3.338
		S46.787-32.264,44.909-32.264z"/>
	<path d="M73.423-21.554c9.667,0,16.9,6.398,16.9,16.274c0,8.972-7.094,16.553-15.997,16.553c-9.25,0-16.831-6.399-16.831-16.275
		C57.496-13.973,64.104-21.554,73.423-21.554z M74.258,9.465c6.955,0,9.667-8.068,9.667-14.049c0-5.703-3.061-15.162-10.433-15.162
		c-6.885,0-9.598,8.068-9.598,14.049C63.895,0.007,66.955,9.465,74.258,9.465z"/>
	<path fill="#EE4800" d="M-34.131,24.835c0.254,0.255,0.383,0.615,0.383,1.078v48.056c0,0.465-0.128,0.824-0.383,1.078
		c-0.255,0.256-0.615,0.383-1.078,0.383h-4.312c-0.464,0-0.824-0.127-1.078-0.383c-0.255-0.254-0.382-0.613-0.382-1.078V41.144
		c0-0.371-0.07-0.661-0.209-0.87c-0.139-0.208-0.302-0.312-0.487-0.312c-0.372,0-0.695,0.302-0.974,0.904l-13.979,33.452
		c-0.278,0.742-0.859,1.112-1.739,1.112h-3.199c-0.881,0-1.46-0.37-1.739-1.112l-14.048-33.522
		c-0.278-0.602-0.581-0.903-0.904-0.903c-0.232,0-0.417,0.104-0.556,0.312s-0.209,0.521-0.209,0.939v32.825
		c0,0.465-0.128,0.824-0.382,1.078c-0.255,0.256-0.615,0.383-1.078,0.383h-4.312c-0.464,0-0.824-0.127-1.078-0.383
		c-0.255-0.254-0.382-0.613-0.382-1.078V25.913c0-0.463,0.127-0.823,0.382-1.078c0.254-0.254,0.614-0.383,1.078-0.383h7.233
		c0.88,0,1.46,0.372,1.738,1.113l14.883,35.887c0.278,0.603,0.602,0.903,0.974,0.903c0.463,0,0.788-0.301,0.974-0.903l14.883-35.887
		c0.278-0.741,0.857-1.113,1.739-1.113h7.164C-34.746,24.452-34.386,24.581-34.131,24.835z"/>
	<path fill="#010000" d="M20.15,74.318c0,0.742-0.441,1.112-1.321,1.112h-5.842c-0.835,0-1.391-0.394-1.669-1.183l-4.59-12.796
		c-0.278-0.788-0.834-1.183-1.669-1.183h-17.665c-0.834,0-1.391,0.395-1.669,1.183l-4.59,12.796
		c-0.278,0.789-0.834,1.183-1.669,1.183h-5.842c-0.881,0-1.321-0.37-1.321-1.112l0.139-0.557l18.5-48.126
		c0.278-0.788,0.834-1.183,1.669-1.183h7.233c0.834,0,1.391,0.395,1.669,1.183l18.5,48.126L20.15,74.318z M-3.773,33.702
		c-0.186,0-0.372,0.094-0.557,0.278c-0.186,0.187-0.325,0.418-0.417,0.695l-6.051,17.179l-0.139,0.557
		c0,0.742,0.44,1.112,1.321,1.112H2.068c0.88,0,1.321-0.37,1.321-1.112L3.25,51.854L-2.8,34.676
		C-3.033,34.027-3.356,33.702-3.773,33.702z"/>
	<path fill="#D2DD26" d="M34.024,24.835c0.254,0.255,0.383,0.615,0.383,1.078v41.311c0,0.464,0.127,0.823,0.382,1.077
		c0.254,0.256,0.614,0.383,1.078,0.383h31.365c0.463,0,0.823,0.128,1.078,0.383c0.254,0.255,0.382,0.615,0.382,1.078v3.824
		c0,0.465-0.128,0.824-0.382,1.078c-0.255,0.256-0.615,0.383-1.078,0.383H28.287c-0.464,0-0.824-0.127-1.078-0.383
		c-0.255-0.254-0.383-0.613-0.383-1.078V25.913c0-0.463,0.127-0.823,0.383-1.078c0.254-0.254,0.614-0.383,1.078-0.383h4.659
		C33.41,24.452,33.769,24.581,34.024,24.835z"/>
	<path fill="#FF7F00" d="M119.115,74.318c0,0.742-0.441,1.112-1.322,1.112h-5.842c-0.834,0-1.391-0.394-1.668-1.183l-4.592-12.796
		c-0.277-0.788-0.834-1.183-1.668-1.183H86.358c-0.834,0-1.391,0.395-1.669,1.183l-4.59,12.796
		c-0.278,0.789-0.834,1.183-1.669,1.183h-5.842c-0.881,0-1.321-0.37-1.321-1.112l0.139-0.557l18.5-48.126
		c0.278-0.788,0.834-1.183,1.669-1.183h7.233c0.835,0,1.392,0.395,1.669,1.183l18.5,48.126L119.115,74.318z M95.191,33.702
		c-0.186,0-0.372,0.094-0.557,0.278c-0.186,0.187-0.325,0.418-0.417,0.695l-6.051,17.179l-0.139,0.557
		c0,0.742,0.44,1.112,1.321,1.112h11.684c0.879,0,1.32-0.37,1.32-1.112l-0.139-0.557l-6.05-17.179
		C95.931,34.027,95.608,33.702,95.191,33.702z"/>
	<path fill="#69BC45" d="M155.835,54.497c0,0.186,0.115,0.464,0.348,0.835l12.379,18.36c0.186,0.232,0.279,0.511,0.279,0.834
		c0,0.604-0.418,0.904-1.252,0.904h-5.773c-0.742,0-1.32-0.324-1.738-0.974l-12.727-19.334c-0.418-0.648-0.998-0.974-1.738-0.974
		h-10.781c-0.463,0-0.822,0.128-1.078,0.383c-0.254,0.255-0.381,0.614-0.381,1.077v18.36c0,0.465-0.129,0.824-0.383,1.078
		c-0.256,0.256-0.615,0.383-1.078,0.383h-4.66c-0.463,0-0.824-0.127-1.078-0.383c-0.256-0.254-0.383-0.613-0.383-1.078V25.913
		c0-0.463,0.127-0.823,0.383-1.078c0.254-0.254,0.615-0.383,1.078-0.383h24.48c4.729,0,8.6,1.194,11.615,3.582
		c3.012,2.389,4.52,6.133,4.52,11.232c0,4.033-0.984,7.198-2.955,9.493s-4.625,3.859-7.963,4.694
		C156.207,53.686,155.835,54.034,155.835,54.497z M134.832,31.129c-0.463,0-0.822,0.129-1.078,0.383
		c-0.254,0.256-0.381,0.615-0.381,1.078v13.353c0,0.465,0.127,0.824,0.381,1.078c0.256,0.256,0.615,0.383,1.078,0.383h12.588
		c2.598,0,4.766-0.139,6.504-0.417s3.221-1.02,4.451-2.226c1.227-1.205,1.842-3.036,1.842-5.494c0-2.457-0.615-4.288-1.842-5.494
		c-1.23-1.205-2.713-1.947-4.451-2.226s-3.906-0.418-6.504-0.418H134.832z"/>
	<path fill="#786CCC" d="M220.304,74.526c0,0.604-0.441,0.904-1.32,0.904h-5.564c-0.742,0-1.322-0.301-1.738-0.904l-15.578-21.49
		c-0.279-0.417-0.627-0.625-1.045-0.625c-0.371,0-0.719,0.162-1.043,0.486l-7.58,7.998c-0.465,0.511-0.695,1.112-0.695,1.808v11.267
		c0,0.465-0.129,0.824-0.383,1.078c-0.256,0.256-0.615,0.383-1.078,0.383h-4.66c-0.463,0-0.822-0.127-1.076-0.383
		c-0.256-0.254-0.383-0.613-0.383-1.078V25.913c0-0.463,0.127-0.823,0.383-1.078c0.254-0.254,0.613-0.383,1.076-0.383h4.66
		c0.463,0,0.822,0.128,1.078,0.383c0.254,0.255,0.383,0.615,0.383,1.078v23.159c0,0.835,0.277,1.252,0.834,1.252
		c0.279,0,0.604-0.185,0.975-0.557l23.02-24.55c0.463-0.51,1.043-0.765,1.738-0.765h6.051c0.371,0,0.672,0.082,0.904,0.244
		c0.232,0.163,0.348,0.36,0.348,0.591c0,0.232-0.162,0.556-0.486,0.974l-18.014,19.125c-0.324,0.324-0.486,0.695-0.486,1.112
		c0,0.278,0.115,0.604,0.348,0.974l18.986,26.149C220.189,73.994,220.304,74.295,220.304,74.526z"/>
	<path fill="#00FFFF" d="M266.865,24.835c0.256,0.255,0.383,0.615,0.383,1.078v3.755c0,0.464-0.127,0.823-0.383,1.078
		c-0.254,0.255-0.615,0.382-1.078,0.382h-29.348c-0.465,0-0.824,0.129-1.078,0.383c-0.256,0.256-0.383,0.615-0.383,1.078v11.614
		c0,0.464,0.127,0.824,0.383,1.078c0.254,0.255,0.613,0.383,1.078,0.383h17.387c0.463,0,0.822,0.128,1.078,0.382
		c0.254,0.256,0.383,0.615,0.383,1.078v3.756c0,0.464-0.129,0.823-0.383,1.078c-0.256,0.255-0.615,0.382-1.078,0.382h-17.387
		c-0.465,0-0.824,0.129-1.078,0.383c-0.256,0.255-0.383,0.615-0.383,1.078v13.492c0,0.464,0.127,0.823,0.383,1.078
		c0.254,0.255,0.613,0.382,1.078,0.382h29.348c0.463,0,0.824,0.129,1.078,0.383c0.256,0.255,0.383,0.615,0.383,1.078v3.755
		c0,0.465-0.127,0.824-0.383,1.078c-0.254,0.256-0.615,0.383-1.078,0.383h-36.928c-0.465,0-0.824-0.127-1.078-0.383
		c-0.256-0.254-0.383-0.613-0.383-1.078V25.913c0-0.463,0.127-0.823,0.383-1.078c0.254-0.254,0.613-0.383,1.078-0.383h36.928
		C266.25,24.452,266.611,24.581,266.865,24.835z"/>
	<path fill="#848382" d="M309.949,24.452h6.189c0.371,0,0.672,0.082,0.904,0.244c0.232,0.163,0.348,0.382,0.348,0.661
		c0,0.232-0.115,0.534-0.348,0.904l-18.15,25.872c-0.373,0.556-0.557,1.159-0.557,1.808v20.029c0,0.465-0.129,0.824-0.383,1.078
		c-0.256,0.256-0.615,0.383-1.078,0.383h-4.66c-0.463,0-0.824-0.127-1.078-0.383c-0.254-0.254-0.383-0.613-0.383-1.078V54.01
		c0-0.648-0.186-1.251-0.555-1.808l-18.152-25.941c-0.232-0.371-0.348-0.672-0.348-0.904c0-0.278,0.115-0.498,0.348-0.661
		c0.23-0.162,0.531-0.244,0.904-0.244h6.467c0.742,0,1.322,0.302,1.74,0.904l12.309,18.361c0.371,0.464,0.719,0.695,1.043,0.695
		c0.371,0,0.719-0.231,1.043-0.695l12.658-18.361C308.628,24.755,309.207,24.452,309.949,24.452z"/>
</g>
</svg>
